<svg width="48" height="48" viewBox="0 0 48 48" fill="none" xmlns="http://www.w3.org/2000/svg">
<path d="M24 14.3496C23.1336 14.3496 22.392 14.0416 21.7752 13.4256C21.1584 12.8088 20.85 12.0504 20.85 11.1504C20.85 10.2832 21.1584 9.5416 21.7752 8.9256C22.392 8.3088 23.1336 8.0004 24 8.0004C24.8664 8.0004 25.608 8.3088 26.2248 8.9256C26.8416 9.5416 27.15 10.2832 27.15 11.1504C27.15 12.0504 26.8416 12.8088 26.2248 13.4256C25.608 14.0416 24.8664 14.3496 24 14.3496ZM20.6496 39.9996V30H18.6504V20.3496C18.6504 19.4168 18.9836 18.6252 19.65 17.9748C20.3164 17.3252 21.0996 17.0004 21.9996 17.0004H26.0004C26.9004 17.0004 27.6836 17.3252 28.35 17.9748C29.0164 18.6252 29.3496 19.4168 29.3496 20.3496V30H27.3504V39.9996H20.6496Z" fill="black"/>
</svg>
